<?xml version="1.0" standalone="no"?>
<!DOCTYPE svg PUBLIC "-//W3C//DTD SVG 20010904//EN"
 "http://www.w3.org/TR/2001/REC-SVG-20010904/DTD/svg10.dtd">
<svg version="1.0" xmlns="http://www.w3.org/2000/svg"
 width="1024.000000pt" height="1024.000000pt" viewBox="0 0 1024.000000 1024.000000"
 preserveAspectRatio="xMidYMid meet">

<g transform="translate(0.000000,1024.000000) scale(0.100000,-0.100000)"
fill="#000000" stroke="none">
<path d="M3785 8460 c-229 -46 -432 -247 -480 -476 -8 -40 -15 -124 -15 -196
0 -79 -4 -128 -10 -128 -5 0 -10 -7 -10 -15 0 -13 -25 -15 -167 -15 -155 0
-172 -2 -219 -24 -59 -27 -116 -90 -132 -145 -8 -26 -12 -150 -12 -382 0 -378
1 -388 62 -433 56 -40 163 -19 204 41 17 26 19 55 24 333 l5 305 118 3 117 3
0 -1118 c0 -1225 -1 -1195 60 -1319 37 -75 96 -143 161 -185 l49 -32 0 -157
c0 -188 10 -227 82 -305 80 -87 117 -97 363 -93 224 3 241 8 318 83 69 67 81
102 87 260 l5 140 726 1 727 2 4 -137 c4 -123 7 -141 31 -187 33 -65 104 -128
168 -149 40 -14 84 -16 246 -13 224 3 240 8 321 89 68 69 82 121 82 307 l0
157 45 28 c104 66 201 214 224 341 7 40 11 422 11 1173 l0 1114 118 -3 117 -3
5 -305 c4 -273 7 -309 23 -333 61 -94 200 -86 249 13 16 31 18 71 18 385 0
330 -2 353 -21 395 -25 56 -62 95 -114 123 -35 19 -60 22 -212 25 -132 3 -173
7 -173 17 0 7 -7 18 -15 25 -12 10 -15 39 -15 139 0 92 -5 147 -18 197 -48
181 -169 331 -327 405 -132 62 -55 59 -1485 58 -718 -1 -1323 -5 -1345 -9z
m2699 -319 c63 -31 122 -90 149 -150 18 -38 22 -69 25 -186 l4 -140 -1537 0
-1537 0 4 130 c3 106 7 139 25 177 43 94 135 167 235 187 24 5 615 8 1313 8
l1270 -2 49 -24z m-1514 -1301 l0 -520 -700 0 -700 0 0 520 0 520 700 0 700 0
0 -520z m1700 0 l0 -520 -700 0 -700 0 0 520 0 520 700 0 700 0 0 -520z m0
-1269 l0 -449 -32 -63 c-36 -68 -98 -120 -166 -139 -24 -6 -485 -10 -1348 -10
-1470 0 -1377 -5 -1461 73 -24 22 -54 59 -66 82 -22 39 -22 50 -25 498 l-3
457 1551 0 1550 0 0 -449z m-2580 -1040 c0 -106 -5 -111 -122 -111 -121 0
-128 6 -128 112 l0 78 125 0 125 0 0 -79z m2310 1 c0 -110 -6 -116 -118 -120
-81 -4 -92 -2 -111 17 -18 18 -21 33 -21 101 l0 80 125 0 125 0 0 -78z"/>
<path d="M3893 5690 c-17 -12 -41 -41 -53 -65 -19 -40 -21 -58 -18 -167 3
-111 5 -126 27 -157 43 -60 84 -71 271 -71 191 0 231 11 270 74 20 34 22 49
22 164 -1 142 -6 164 -52 207 l-31 30 -202 3 c-190 2 -204 1 -234 -18z"/>
<path d="M5900 5688 c-59 -40 -70 -76 -70 -219 0 -114 2 -129 23 -159 48 -72
59 -75 260 -78 173 -3 184 -2 227 20 69 35 80 66 80 223 0 146 -11 177 -72
215 -30 18 -51 20 -224 20 -182 0 -193 -1 -224 -22z"/>
<path d="M1768 4734 c-203 -49 -379 -227 -429 -434 -17 -74 -15 -221 5 -299
20 -79 73 -181 126 -242 91 -106 255 -186 402 -196 66 -5 169 6 212 23 7 3 34
-28 61 -68 211 -308 526 -634 852 -880 523 -397 1150 -649 1788 -720 175 -19
587 -16 750 5 837 111 1604 518 2222 1179 107 115 252 294 333 411 49 71 57
77 80 71 110 -30 209 -31 314 -4 113 29 190 73 276 160 117 116 170 246 170
415 0 169 -53 298 -170 416 -78 80 -164 132 -265 160 -75 21 -266 18 -335 -5
-194 -65 -338 -215 -396 -411 -22 -77 -23 -219 -1 -302 19 -73 58 -153 99
-206 l30 -38 -28 -42 c-15 -23 -61 -87 -103 -142 -512 -677 -1269 -1164 -2061
-1325 -199 -40 -312 -51 -540 -51 -269 0 -485 23 -705 76 -381 91 -750 250
-1073 461 -368 241 -648 507 -931 883 l-99 133 35 47 c74 96 113 217 113 351
0 231 -124 434 -321 528 -46 22 -108 45 -137 51 -71 15 -204 12 -274 -5z m266
-328 c99 -58 153 -159 144 -270 -7 -76 -33 -130 -91 -183 -108 -99 -257 -95
-363 11 -79 80 -102 173 -68 286 20 66 98 149 164 173 65 24 157 17 214 -17z
m6392 17 c68 -23 145 -102 169 -172 21 -64 17 -159 -9 -213 -79 -164 -288
-205 -424 -83 -125 113 -126 297 0 410 80 72 167 91 264 58z"/>
</g>
</svg>
